<svg width="1440.000000" height="1024.000000" viewBox="0 0 1440 1024" fill="none" xmlns="http://www.w3.org/2000/svg" xmlns:xlink="http://www.w3.org/1999/xlink">
	<desc>
			Created with Pixso.
	</desc>
	<defs>
		<clipPath id="clip1_57427">
			<rect id="Group 10" width="167.000000" height="17.000000" transform="translate(1143.000000 973.000000)" fill="white" fill-opacity="0"/>
		</clipPath>
		<clipPath id="clip1_57402">
			<rect id="Select date &amp; time - Error" width="1440.000000" height="1024.000000" fill="white" fill-opacity="0"/>
		</clipPath>
		<linearGradient id="paint_linear_1_57403_0" x1="-727.199829" y1="522.239868" x2="741.599976" y2="1556.480103" gradientUnits="userSpaceOnUse">
			<stop stop-color="#8E53E4"/>
			<stop offset="1.000000" stop-color="#4B22B9"/>
		</linearGradient>
		<linearGradient id="paint_linear_1_57415_0" x1="1164.842773" y1="-473.714050" x2="638.312256" y2="-45.165070" gradientUnits="userSpaceOnUse">
			<stop stop-color="#7E77FF"/>
			<stop offset="1.000000" stop-color="#FFFFFF" stop-opacity="0.101961"/>
		</linearGradient>
		<linearGradient id="paint_linear_1_57420_0" x1="600.867432" y1="134.947205" x2="-129.564636" y2="468.534882" gradientUnits="userSpaceOnUse">
			<stop stop-color="#7E77FF"/>
			<stop offset="1.000000" stop-color="#FFFFFF" stop-opacity="0.101961"/>
		</linearGradient>
		<linearGradient id="paint_linear_1_57421_0" x1="1469.024048" y1="332.691040" x2="1120.298218" y2="494.067841" gradientUnits="userSpaceOnUse">
			<stop stop-color="#7E77FF"/>
			<stop offset="1.000000" stop-color="#FFFFFF" stop-opacity="0.000000"/>
		</linearGradient>
		<linearGradient id="paint_linear_1_57422_0" x1="84.773483" y1="66.986206" x2="-463.131470" y2="317.273132" gradientUnits="userSpaceOnUse">
			<stop stop-color="#7E77FF"/>
			<stop offset="1.000000" stop-color="#FFFFFF" stop-opacity="0.101961"/>
		</linearGradient>
	</defs>
	<rect id="Frame 16" width="1440.000000" height="1024.000000" fill="#FFFFFF" fill-opacity="0"/>
	<rect id="Select date &amp; time - Error" width="1440.000000" height="1024.000000" fill="#FFFFFF" fill-opacity="1.000000"/>
	<g clip-path="url(#clip1_57402)">
		<rect id="Rectangle" width="1440.000000" height="1024.000000" fill="url(#paint_linear_1_57403_0)" fill-opacity="1.000000"/>
		<g opacity="0.600000">
			<g opacity="0.200000">
				<ellipse id="Oval-Copy-15" rx="65.018608" ry="65.056755" transform="matrix(0.939693 0.939693 0.34202 -0.34202 81.396 873.438)" stroke="#F9804B" stroke-opacity="1.000000" stroke-width="1.000000"/>
			</g>
			<g opacity="0.200000">
				<path id="Oval-Copy-16" d="M176.323 942.194C209.554 886.851 191.64 815.018 136.309 781.75C80.9785 748.483 9.18457 766.378 -24.0474 821.721C-57.2788 877.064 -39.3643 948.897 15.9663 982.165C71.2969 1015.43 143.091 997.537 176.323 942.194Z" stroke="#C26EEF" stroke-opacity="1.000000" stroke-width="1.000000" stroke-dasharray="112 448"/>
			</g>
		</g>
		<g opacity="0.100000">
			<ellipse id="path-4" cx="971.032227" cy="-93.456909" rx="311.569946" ry="311.486725" fill="#000000" fill-opacity="1.000000"/>
			<ellipse id="path-4" cx="971.032227" cy="-93.456909" rx="311.569946" ry="311.486725" fill="url(#paint_linear_1_57415_0)" fill-opacity="1.000000"/>
		</g>
		<g opacity="0.100000">
			<path id="path-7" d="M-162.985 395.486L317.236 220.7C355.042 206.939 394.125 204.235 430.959 210.945C467.795 217.654 502.384 233.777 531.202 257.672C560.021 281.567 583.07 313.234 596.827 351.03C610.583 388.825 613.282 427.899 606.564 464.728C599.847 501.557 583.715 536.141 559.81 564.958C535.905 593.775 504.229 616.825 466.422 630.585L-13.7988 805.372C-51.6045 819.132 -90.6865 821.836 -127.522 815.126C-164.357 808.417 -198.946 792.294 -227.765 768.399C-256.583 744.504 -279.633 712.838 -293.389 675.042C-307.146 637.246 -309.844 598.172 -303.127 561.343C-296.41 524.514 -280.277 489.93 -256.373 461.113C-232.468 432.296 -200.791 409.246 -162.985 395.486Z" fill="#000000" fill-opacity="1.000000" fill-rule="evenodd"/>
			<path id="path-7" d="M-162.985 395.486L317.236 220.7C355.042 206.939 394.125 204.235 430.959 210.945C467.795 217.654 502.384 233.777 531.202 257.672C560.021 281.567 583.07 313.234 596.827 351.03C610.583 388.825 613.282 427.899 606.564 464.728C599.847 501.557 583.715 536.141 559.81 564.958C535.905 593.775 504.229 616.825 466.422 630.585L-13.7988 805.372C-51.6045 819.132 -90.6865 821.836 -127.522 815.126C-164.357 808.417 -198.946 792.294 -227.765 768.399C-256.583 744.504 -279.633 712.838 -293.389 675.042C-307.146 637.246 -309.844 598.172 -303.127 561.343C-296.41 524.514 -280.277 489.93 -256.373 461.113C-232.468 432.296 -200.791 409.246 -162.985 395.486Z" fill="url(#paint_linear_1_57420_0)" fill-opacity="1.000000" fill-rule="evenodd"/>
		</g>
		<g opacity="0.100000">
			<path id="Header-shape-3" d="M1021.99 432.802L1382.18 301.627C1410.57 291.288 1439.89 289.245 1467.52 294.274C1495.15 299.303 1521.08 311.403 1542.69 329.348C1564.3 347.293 1581.59 371.083 1591.92 399.491C1602.26 427.899 1604.3 457.241 1599.27 484.886C1594.25 512.531 1582.15 538.479 1564.22 560.102C1546.29 581.724 1522.51 599.02 1494.12 609.36L1133.93 740.534C1105.54 750.873 1076.22 752.916 1048.59 747.887C1020.96 742.858 995.024 730.758 973.415 712.813C951.805 694.868 934.52 671.079 924.186 642.67C913.852 614.262 911.811 584.92 916.837 557.275C921.863 529.63 933.956 503.682 951.89 482.059C969.824 460.437 993.6 443.141 1021.99 432.802Z" fill="url(#paint_linear_1_57421_0)" fill-opacity="1.000000" fill-rule="evenodd"/>
		</g>
		<g opacity="0.100000">
			<path id="Header-shape-2" d="M-488.153 262.467L-127.967 131.293C-99.5752 120.953 -70.251 118.911 -42.6221 123.94C-14.9932 128.969 10.9404 141.069 32.5498 159.013C54.1592 176.958 71.4453 200.748 81.7788 229.156C92.1128 257.565 94.1538 286.906 89.1279 314.551C84.1021 342.196 72.0088 368.145 54.0747 389.767C36.1406 411.389 12.3643 428.685 -16.0273 439.025L-376.213 570.199C-404.605 580.539 -433.93 582.581 -461.558 577.552C-489.187 572.523 -515.121 560.424 -536.73 542.479C-558.339 524.534 -575.625 500.744 -585.959 472.336C-596.293 443.927 -598.334 414.586 -593.308 386.941C-588.282 359.296 -576.189 333.347 -558.255 311.725C-540.32 290.103 -516.545 272.807 -488.153 262.467Z" fill="url(#paint_linear_1_57422_0)" fill-opacity="1.000000" fill-rule="evenodd"/>
		</g>
		<g opacity="0.200000">
			<path id="Shape" d="M1383 233.5C1383 237.678 1386.54 241 1391 241C1395.46 241 1399 237.678 1399 233.5C1399 229.322 1395.46 226 1391 226C1386.54 226 1383 229.322 1383 233.5ZM1385.29 233.5C1385.29 230.5 1387.8 228.143 1391 228.143C1394.2 228.143 1396.71 230.607 1396.71 233.5C1396.71 236.5 1394.2 238.857 1391 238.857C1387.8 238.857 1385.29 236.5 1385.29 233.5Z" clip-rule="evenodd" fill="#FFFFFF" fill-opacity="1.000000" fill-rule="evenodd"/>
		</g>
		<rect id="Group 10" width="167.000000" height="17.000000" transform="translate(1143.000000 973.000000)" fill="#FFFFFF" fill-opacity="0"/>
		<g clip-path="url(#clip1_57427)">
			<path id="instagram - FontAwesome" d="M1182 980.801L1190 980.801L1190 992L1182 992L1182 980.801ZM1188.72 981.602L1183.28 981.602L1186 985.68L1188.72 981.602ZM1182.8 990.48L1185.52 986.398L1182.8 982.32L1182.8 990.48ZM1189.2 990.48L1189.2 982.32L1186.48 986.398L1189.2 990.48ZM1188.72 991.199L1186 987.121L1183.28 991.199L1188.72 991.199Z" fill="#FFFFFF" fill-opacity="0.200000" fill-rule="evenodd"/>
			<path id="facebook-square - FontAwesome" d="M1146 980.801L1154 980.801L1154 992L1146 992L1146 980.801ZM1152.72 981.602L1147.28 981.602L1150 985.68L1152.72 981.602ZM1146.8 990.48L1149.52 986.398L1146.8 982.32L1146.8 990.48ZM1153.2 990.48L1153.2 982.32L1150.48 986.398L1153.2 990.48ZM1152.72 991.199L1150 987.121L1147.28 991.199L1152.72 991.199Z" fill="#FFFFFF" fill-opacity="0.200000" fill-rule="evenodd"/>
			<path id="twitter - FontAwesome" d="M1218 980.801L1226 980.801L1226 992L1218 992L1218 980.801ZM1224.72 981.602L1219.28 981.602L1222 985.68L1224.72 981.602ZM1218.8 990.48L1221.52 986.398L1218.8 982.32L1218.8 990.48ZM1225.2 990.48L1225.2 982.32L1222.48 986.398L1225.2 990.48ZM1224.72 991.199L1222 987.121L1219.28 991.199L1224.72 991.199Z" fill="#FFFFFF" fill-opacity="0.200000" fill-rule="evenodd"/>
			<path id="Google Plus - FontAwesome" d="M1295 980.801L1303 980.801L1303 992L1295 992L1295 980.801ZM1301.72 981.602L1296.28 981.602L1299 985.68L1301.72 981.602ZM1295.8 990.48L1298.52 986.398L1295.8 982.32L1295.8 990.48ZM1302.2 990.48L1302.2 982.32L1299.48 986.398L1302.2 990.48ZM1301.72 991.199L1299 987.121L1296.28 991.199L1301.72 991.199Z" fill="#FFFFFF" fill-opacity="0.200000" fill-rule="evenodd"/>
			<path id="LinkedIn - FontAwesome" d="M1255 979.801L1263 979.801L1263 991L1255 991L1255 979.801ZM1261.72 980.602L1256.28 980.602L1259 984.68L1261.72 980.602ZM1255.8 989.48L1258.52 985.398L1255.8 981.32L1255.8 989.48ZM1262.2 989.48L1262.2 981.32L1259.48 985.398L1262.2 989.48ZM1261.72 990.199L1259 986.121L1256.28 990.199L1261.72 990.199Z" fill="#FFFFFF" fill-opacity="0.200000" fill-rule="evenodd"/>
		</g>
	</g>
</svg>
