<svg width="10.000000" height="8.000000" viewBox="0 0 10 8" fill="none" xmlns="http://www.w3.org/2000/svg" xmlns:xlink="http://www.w3.org/1999/xlink">
	<desc>
			Created with Pixso.
	</desc>
	<defs/>
	<path id="Path" d="M9.62402 0.456436L9.35645 0.242477C8.91211 -0.112747 8.24414 -0.0731506 7.85156 0.331558L3.37256 4.95088L2.02002 3.86781C1.57617 3.51218 0.908203 3.55098 0.515137 3.95526L0.278809 4.1989C0.0864258 4.39638 -0.0131836 4.65686 0.00146484 4.92294C0.0161133 5.18889 0.143555 5.43854 0.356445 5.61703L2.83447 7.72794C3.04932 7.91536 3.33691 8.01309 3.63086 7.99858C3.9248 7.98412 4.19971 7.85852 4.3916 7.651L9.73877 1.87248C9.92578 1.67058 10.0186 1.40797 9.99707 1.14244C9.97559 0.876709 9.84131 0.62999 9.62402 0.456436Z" fill="#FFFFFF" fill-opacity="1.000000" fill-rule="evenodd"/>
</svg>
