<svg width="20.000000" height="20.000000" viewBox="0 0 20 20" fill="none" xmlns="http://www.w3.org/2000/svg" xmlns:xlink="http://www.w3.org/1999/xlink">
	<desc>
			Created with Pixso.
	</desc>
	<defs/>
	<path id="Vector" d="M10 5C9.7168 5 9.47852 5.09595 9.28711 5.28809C9.09473 5.47998 8.99902 5.71729 9 6C9 6.28345 9.0957 6.521 9.28809 6.71289C9.48047 6.90503 9.71777 7.00073 10 7C10.2832 7 10.5215 6.90405 10.7129 6.71191C10.9053 6.52002 11.001 6.28271 11 6C11 5.71655 10.9043 5.479 10.7119 5.28711C10.5195 5.09497 10.2822 4.99927 10 5ZM11 9L9 9L9 15L11 15L11 9ZM10 0C11.3838 0 12.6836 0.262695 13.9004 0.788086C15.1162 1.31323 16.1748 2.02563 17.0752 2.92505C17.9746 3.82495 18.6875 4.8833 19.2119 6.1001C19.7363 7.31665 19.999 8.6167 20 10C20 11.3833 19.7373 12.6833 19.2119 13.8999C18.6865 15.1167 17.9746 16.175 17.0752 17.075C16.1748 17.9751 15.1162 18.6873 13.9004 19.2119C12.6836 19.7366 11.3838 19.9993 10 20C8.61621 20 7.31641 19.7373 6.09961 19.2119C4.88379 18.6868 3.8252 17.9744 2.9248 17.075C2.02539 16.175 1.3125 15.1167 0.787109 13.8999C0.261719 12.6833 -0.000976562 11.3833 0 10C0 8.6167 0.262695 7.31665 0.788086 6.1001C1.31348 4.8833 2.02539 3.82495 2.9248 2.92505C3.8252 2.0249 4.88379 1.31226 6.09961 0.787109C7.31641 0.261719 8.61621 -0.000732422 10 0ZM10 2C7.7666 2 5.875 2.7749 4.3252 4.32495C2.77539 5.875 2 7.7666 2 10C2 12.2334 2.77539 14.125 4.3252 15.675C5.875 17.2251 7.7666 18 10 18C12.2334 18 14.125 17.2251 15.6748 15.675C17.2246 14.125 18 12.2334 18 10C18 7.7666 17.2246 5.875 15.6748 4.32495C14.125 2.7749 12.2334 2 10 2Z" fill="#FFFFFF" fill-opacity="1.000000" fill-rule="nonzero"/>
</svg>
