<svg width="14.000000" height="14.000000" viewBox="0 0 14 14" fill="none" xmlns="http://www.w3.org/2000/svg" xmlns:xlink="http://www.w3.org/1999/xlink">
	<desc>
			Created with Pixso.
	</desc>
	<defs/>
	<path id="Combined Shape" d="M13.603 2.28546C14.1289 1.75963 14.1309 0.912048 13.6094 0.390594C13.0845 -0.134521 12.2397 -0.127991 11.7144 0.397064L7 5.1116L2.28564 0.397064C1.75977 -0.128784 0.912109 -0.13089 0.390625 0.390594C-0.134277 0.91568 -0.12793 1.76042 0.396973 2.28546L5.11182 7L0.396973 11.7145C-0.128906 12.2404 -0.130859 13.088 0.390625 13.6094C0.915527 14.1345 1.76025 14.128 2.28564 13.603L7 8.8884L11.7144 13.603C12.2402 14.1288 13.0879 14.1309 13.6094 13.6094C14.1343 13.0843 14.1279 12.2396 13.603 11.7145L8.88818 7L13.603 2.28546Z" fill="#ADBFC7" fill-opacity="1.000000" fill-rule="evenodd"/>
	<path id="Combined Shape" d="M13.6094 0.390594C13.0845 -0.134521 12.2397 -0.127991 11.7144 0.397064L7 5.1116L2.28564 0.397064C1.75977 -0.128784 0.912109 -0.13089 0.390625 0.390594C-0.134277 0.91568 -0.12793 1.76042 0.396973 2.28546L5.11182 7L0.396973 11.7145C-0.128906 12.2404 -0.130859 13.088 0.390625 13.6094C0.915527 14.1345 1.76025 14.128 2.28564 13.603L7 8.8884L11.7144 13.603C12.2402 14.1288 13.0879 14.1309 13.6094 13.6094C14.1343 13.0843 14.1279 12.2396 13.603 11.7145L8.88818 7L13.603 2.28546C14.1289 1.75963 14.1309 0.912048 13.6094 0.390594Z" stroke="#979797" stroke-opacity="0" stroke-width="0.000000"/>
</svg>
